<?xml version="1.0" encoding="utf-8"?>
<!-- Generator: Adobe Illustrator 19.1.0, SVG Export Plug-In . SVG Version: 6.00 Build 0)  -->
<svg version="1.1" id="Layer_1" xmlns="http://www.w3.org/2000/svg" xmlns:xlink="http://www.w3.org/1999/xlink" x="0px" y="0px"
	 viewBox="0 0 586.2 72" style="enable-background:new 0 0 586.2 72;" xml:space="preserve">
<style type="text/css">
	.st0{fill:#53276E;}
</style>
<g>
	<path class="st0" d="M10.2,58.5c0,6.8,0.1,9.1,0.5,10.1c0.3,0.9,1,1.2,3.3,1.4l1.7,0.1l0.2,0.2v1.2l-0.2,0.2
		c-2.2-0.1-4.8-0.2-7.6-0.2c-2.7,0-5.5,0.1-7.9,0.2L0,71.6v-1.2l0.2-0.2L1.9,70c1.8-0.1,2.7-0.4,3.1-0.9c0.5-0.6,0.5-1.9,0.5-4.5
		V27.9c0-2.1,0-3.5-0.4-4c-0.4-0.4-0.8-0.6-1.8-0.7l-3-0.1L0,22.8v-1.2l0.2-0.2c2-0.2,6.7-1.6,9.5-2.7l0.4,0.4v6.5
		c6.2-5.8,8.2-6.9,12-6.9c7,0,13.4,5.1,13.4,15c0,7.3-2.9,11.6-7.9,15.2c-4,2.9-7,4.4-11.4,4.4c-2.7,0-5.3-1.1-6-1.5V58.5z
		 M10.2,46.8c1.8,2,4.5,3.4,8.2,3.4c8.4,0,12.3-6.8,12.3-14.6c0-10.3-6-13.1-10.5-13.1c-3.9,0-6.3,2.2-7.8,3.5
		c-2.1,1.8-2.2,2.7-2.2,6.3V46.8z"/>
	<path class="st0" d="M67,46.8c0,3.2,0.5,3.7,3.7,4l1.6,0.1l0.2,0.2v1.2l-0.2,0.2c-1.5-0.1-3.3-0.2-5-0.2s-3.8,0.1-4.7,0.2l-0.4-0.4
		c0.1-1.8,0.2-3.7,0.2-5.5c-1.4,1.4-3,2.8-6,5c-1.6,1.2-3,1.5-5,1.5c-6.8,0-9.6-3.6-9.6-9.2c0-5.1,3.1-7.5,7.6-9
		c4.2-1.4,9.4-1.9,13.1-3v-1.4c0-6.2-2.5-8.6-8.1-8.6c-2.3,0-4,0.6-4.8,1.2c-0.7,0.5-1,0.9-1.4,1.8l-1.4,3.4l-0.2,0.2L45,28.1
		l-0.2-0.2l-0.1-4.6l0.2-0.3c2.3-1.5,5.9-4.3,11.8-4.3c2.8,0,7.3,1.1,9.2,4.9c1.2,2.4,1.2,5.2,1.2,9.8V46.8z M62.4,33.7
		c-2.4,0.8-6.6,1.4-9.6,2.5c-3.1,1.2-5.9,2.9-5.9,6.9c0,3.1,1.4,6.4,6.2,6.4c4.7,0,7.9-3.7,9.3-5.4V33.7z"/>
	<path class="st0" d="M80.6,9.3c0-2.1,0-3.5-0.4-4c-0.4-0.4-0.8-0.6-1.8-0.7l-3.3-0.1l-0.2-0.2V3l0.2-0.2c2.3-0.2,7-1.6,9.8-2.7
		l0.8,0.5c-0.1,1.7-0.4,6.3-0.4,16.3v28.5c0,2.7,0,4,0.5,4.5c0.4,0.5,1.3,0.8,3.1,0.9l1.9,0.1l0.2,0.2v1.2l-0.2,0.2
		c-2.7-0.1-5.5-0.2-8-0.2c-2.3,0-5,0.1-7.8,0.2l-0.2-0.2v-1.2l0.2-0.2l1.9-0.1c1.8-0.1,2.7-0.4,3.1-0.9c0.5-0.6,0.5-1.9,0.5-4.5V9.3
		z"/>
	<path class="st0" d="M120.3,46.8c0,3.2,0.5,3.7,3.7,4l1.6,0.1l0.2,0.2v1.2l-0.2,0.2c-1.5-0.1-3.3-0.2-5-0.2s-3.8,0.1-4.7,0.2
		l-0.4-0.4c0.1-1.8,0.2-3.7,0.2-5.5c-1.4,1.4-3,2.8-6,5c-1.6,1.2-3,1.5-5,1.5c-6.8,0-9.6-3.6-9.6-9.2c0-5.1,3.1-7.5,7.6-9
		c4.2-1.4,9.4-1.9,13.1-3v-1.4c0-6.2-2.5-8.6-8.1-8.6c-2.3,0-4,0.6-4.8,1.2c-0.7,0.5-1,0.9-1.4,1.8l-1.4,3.4l-0.2,0.2l-1.4-0.4
		l-0.2-0.2l-0.1-4.6l0.2-0.3c2.3-1.5,5.9-4.3,11.8-4.3c2.8,0,7.3,1.1,9.2,4.9c1.2,2.4,1.2,5.2,1.2,9.8V46.8z M115.6,33.7
		c-2.4,0.8-6.6,1.4-9.6,2.5c-3.1,1.2-5.9,2.9-5.9,6.9c0,3.1,1.4,6.4,6.2,6.4c4.7,0,7.9-3.7,9.3-5.4V33.7z"/>
	<path class="st0" d="M133.7,21c0-7.1,0-7.9-0.3-10.7c2.1-0.6,2.6-0.8,4.8-1.8L139,9c-0.4,4-0.6,8-0.6,12h2.4c2.8,0,6.5-0.4,7.3-0.4
		l0.5,0.4c-0.4,1.4-0.5,1.9-0.6,3l-0.2,0.2c-0.7-0.1-1.6-0.1-2.4-0.1h-7.1v21.3c0,2.8,1.2,4.4,4.5,4.4c1.9,0,3.2-0.5,4.3-1.3
		l0.6,0.9c-0.6,0.8-1.4,1.7-2.1,2.7c-1.2,0.6-2.5,1.2-5.1,1.2c-5,0-7.2-2.8-7.2-6.6c0-8.3,0.2-15.4,0.2-22.5h-1.9
		c-1.2,0-2.3,0.1-3.5,0.3l-0.2-0.2v-0.9l0.2-0.2L133.7,21z"/>
	<path class="st0" d="M156.6,27.9c0-2.1,0-3.5-0.4-4c-0.4-0.4-0.8-0.6-1.8-0.7l-3.3-0.1l-0.2-0.2v-1.2l0.2-0.2
		c2.3-0.2,7-1.6,9.8-2.7l0.6,0.4c-0.1,1.4-0.2,4.6-0.2,8.9v17.4c0,2.7,0,4,0.5,4.5c0.4,0.5,1.3,0.8,3.1,0.9l1.9,0.1l0.2,0.2v1.2
		l-0.2,0.2c-2.7-0.1-5.5-0.2-7.8-0.2c-2.4,0-5.2,0.1-7.9,0.2l-0.2-0.2v-1.2l0.2-0.2l1.9-0.1c1.8-0.1,2.7-0.4,3.1-0.9
		c0.5-0.6,0.5-1.9,0.5-4.5V27.9z M158.9,3.5c1.9,0,3.5,1.6,3.5,3.5c0,1.9-1.6,3.5-3.5,3.5c-1.9,0-3.5-1.6-3.5-3.5
		C155.4,5.1,157,3.5,158.9,3.5z"/>
	<path class="st0" d="M175.2,27.9c0-2.1,0-3.5-0.4-4c-0.4-0.4-0.8-0.6-1.8-0.7l-3-0.1l-0.2-0.2v-1.2l0.2-0.2c2-0.2,6.7-1.6,9.5-2.7
		l0.4,0.4V25c1.6-1.2,5-4.1,6-5.3c1.4-0.6,2.7-1.1,5.6-1.1c9,0,11.1,6.7,11.1,12v16.2c0,3.2,0.5,3.7,3.7,4l1.6,0.1l0.2,0.2v1.2
		l-0.2,0.2c-1.5-0.1-3.3-0.2-5-0.2s-3.8,0.1-4.8,0.2l-0.4-0.4c0.4-4.8,0.4-10.1,0.4-16.8c0-7.1-0.4-12.7-9.1-12.7
		c-4.7,0-8.1,4-8.4,4.6c-0.3,0.6-0.5,2.7-0.5,7.7v4.5c0,6.8,0.1,9.1,0.5,10.1c0.3,0.9,1,1.2,3.7,1.4l1.7,0.1l0.2,0.2v1.2l-0.2,0.2
		c-2.5-0.1-5.2-0.2-7.9-0.2s-5.5,0.1-7.9,0.2l-0.2-0.2v-1.2l0.2-0.2l1.7-0.1c1.8-0.1,2.7-0.4,3.1-0.9c0.5-0.6,0.5-1.9,0.5-4.5V27.9z
		"/>
	<path class="st0" d="M229.3,18.7c9.4,0,16.1,5.9,16.1,16.9c0,10.4-7.8,17.6-16.6,17.6c-12.6,0-16.4-10.5-16.4-17.1
		C212.4,25.9,219.4,18.7,229.3,18.7z M240,36.2c0-7.8-3.2-15.4-11.6-15.4c-6.3,0-10.7,4.5-10.7,13.4c0,10.1,4,16.8,11,16.8
		C234.8,51.1,240,47.7,240,36.2z"/>
	<path class="st0" d="M293.5,50.5c-1.8,1.2-4.7,2.7-10,2.7c-6.9,0-14.5-4.5-14.5-16.6c0-4.2,0.6-7.5,2.4-10c2.2-3.4,8.8-7.9,15-7.9
		c3.6,0,5.7,0.8,7.8,1.9l0.2,0.4c-0.8,3.2-0.9,6.3-1.1,8.6l-0.2,0.2H292l-0.2-0.2c0-0.6-0.2-3.8-0.8-4.8c-0.4-0.7-3.2-3-7.1-3
		c-4,0-9.9,2.5-9.9,13c0,7,3.6,15.3,12.2,15.3c4,0,6.4-1.3,8.2-2.2l0.4,0.6L293.5,50.5z"/>
	<path class="st0" d="M316.7,18.7c9.4,0,16.1,5.9,16.1,16.9c0,10.4-7.8,17.6-16.6,17.6c-12.6,0-16.4-10.5-16.4-17.1
		C299.7,25.9,306.7,18.7,316.7,18.7z M327.4,36.2c0-7.8-3.2-15.4-11.6-15.4c-6.3,0-10.7,4.5-10.7,13.4c0,10.1,4,16.8,11,16.8
		C322.1,51.1,327.4,47.7,327.4,36.2z"/>
	<path class="st0" d="M342.6,27.9c0-2.1,0-3.5-0.4-4c-0.4-0.4-0.8-0.6-1.8-0.7l-3-0.1l-0.2-0.2v-1.2l0.2-0.2c2-0.2,6.7-1.6,9.5-2.7
		l0.4,0.4V25c1.6-1.2,5-4.1,6-5.3c1.4-0.6,2.7-1.1,5.6-1.1c9,0,11.1,6.7,11.1,12v16.2c0,3.2,0.5,3.7,3.7,4l1.6,0.1l0.2,0.2v1.2
		l-0.2,0.2c-1.5-0.1-3.3-0.2-5-0.2c-1.7,0-3.8,0.1-4.8,0.2l-0.4-0.4c0.4-4.8,0.4-10.1,0.4-16.8c0-7.1-0.4-12.7-9.1-12.7
		c-4.7,0-8.1,4-8.4,4.6c-0.3,0.6-0.5,2.7-0.5,7.7v4.5c0,6.8,0.1,9.1,0.5,10.1c0.3,0.9,1,1.2,3.7,1.4l1.7,0.1l0.2,0.2v1.2l-0.2,0.2
		c-2.5-0.1-5.2-0.2-7.9-0.2c-2.7,0-5.5,0.1-7.9,0.2l-0.2-0.2v-1.2l0.2-0.2l1.7-0.1c1.8-0.1,2.7-0.4,3.1-0.9c0.5-0.6,0.5-1.9,0.5-4.5
		V27.9z"/>
	<path class="st0" d="M382.3,46.9c1.2,1.7,4,4.1,8.5,4.1c3.2,0,8.1-1.7,8.1-7.3c0-4.4-2.7-5-7.3-5.8c-5.3-0.8-12.1-2.4-12.1-8.9
		c0-7,6.9-10.4,12.5-10.4c3.1,0,7.1,0.6,9.6,1.9l0.2,0.2c-0.5,1.8-0.5,2.7-0.7,7.2l-0.2,0.2h-1.3l-0.2-0.2l-0.4-3.6
		c-0.1-0.6-2.5-3.6-7.6-3.6c-3.5,0-7.3,2.1-7.3,6.4c0,3.4,2.1,4.8,6.4,5.7l4.8,0.9c4.5,0.9,8.2,1.7,8.2,7.8
		c0,5.7-4.5,11.6-15.1,11.6c-3.5,0-6.1-0.7-8.5-1.6l-0.2-0.2c0.1-1.7,0.4-4.7,0.5-8.1l0.2-0.2h1.4l0.2,0.2L382.3,46.9z"/>
	<path class="st0" d="M412.6,27.9c0-2.1,0-3.5-0.4-4c-0.4-0.4-0.8-0.6-1.8-0.7L407,23l-0.2-0.2v-1.2l0.2-0.2c2.3-0.2,7-1.6,9.8-2.7
		l0.6,0.4c-0.1,1.4-0.2,4.6-0.2,8.9v9.4c0,5.8,0.3,7.5,1.1,9.1c0.6,1.2,2.8,3.2,6.1,3.2c3.5,0,6.5-1.9,8.7-4.5
		c0.6-0.7,1.4-1.7,1.4-6V27.9c0-2.1,0-3.5-0.4-4c-0.4-0.4-0.8-0.6-1.8-0.7L429,23l-0.2-0.2v-1.2l0.2-0.2c2.3-0.2,7-1.6,9.8-2.7
		l0.6,0.4c-0.1,1.4-0.2,4.6-0.2,8.9v18.9c0,3.2,0.5,3.7,3.7,4l1.6,0.1l0.2,0.2v1.2l-0.2,0.2c-1.5-0.1-3.3-0.2-5-0.2
		c-1.7,0-3.8,0.1-4.8,0.2l-0.2-0.2c0.1-2.1,0.1-4.1,0.1-6.2l-4.6,4.2c-1.7,1.6-3.2,2.8-7.8,2.8c-7.8,0-9.6-5.8-9.6-10.4V27.9z"/>
	<path class="st0" d="M453.2,9.3c0-2.1,0-3.5-0.4-4c-0.4-0.4-0.8-0.6-1.8-0.7l-3.3-0.1l-0.2-0.2V3l0.2-0.2c2.3-0.2,7-1.6,9.8-2.7
		l0.8,0.5c-0.1,1.7-0.4,6.3-0.4,16.3v28.5c0,2.7,0,4,0.5,4.5c0.4,0.5,1.3,0.8,3.1,0.9l1.9,0.1l0.2,0.2v1.2l-0.2,0.2
		c-2.7-0.1-5.5-0.2-8-0.2c-2.3,0-5,0.1-7.8,0.2l-0.2-0.2v-1.2l0.2-0.2l1.9-0.1c1.8-0.1,2.7-0.4,3.1-0.9c0.5-0.6,0.5-1.9,0.5-4.5V9.3
		z"/>
	<path class="st0" d="M471.7,21c0-7.1,0-7.9-0.3-10.7c2.1-0.6,2.6-0.8,4.8-1.8L477,9c-0.4,4-0.6,8-0.6,12h2.4c2.8,0,6.5-0.4,7.3-0.4
		l0.5,0.4c-0.4,1.4-0.5,1.9-0.6,3l-0.2,0.2c-0.7-0.1-1.6-0.1-2.4-0.1h-7.1v21.3c0,2.8,1.2,4.4,4.5,4.4c1.9,0,3.2-0.5,4.3-1.3
		l0.6,0.9c-0.6,0.8-1.4,1.7-2.1,2.7c-1.2,0.6-2.5,1.2-5.1,1.2c-5,0-7.2-2.8-7.2-6.6c0-8.3,0.2-15.4,0.2-22.5h-1.9
		c-1.2,0-2.3,0.1-3.5,0.3l-0.2-0.2v-0.9l0.2-0.2L471.7,21z"/>
	<path class="st0" d="M494.6,27.9c0-2.1,0-3.5-0.4-4c-0.4-0.4-0.8-0.6-1.8-0.7L489,23l-0.2-0.2v-1.2l0.2-0.2c2.3-0.2,7-1.6,9.8-2.7
		l0.6,0.4c-0.1,1.4-0.2,4.6-0.2,8.9v17.4c0,2.7,0,4,0.5,4.5c0.4,0.5,1.3,0.8,3.1,0.9l1.9,0.1l0.2,0.2v1.2l-0.2,0.2
		c-2.7-0.1-5.5-0.2-7.8-0.2c-2.4,0-5.2,0.1-7.9,0.2l-0.2-0.2v-1.2l0.2-0.2l1.9-0.1c1.8-0.1,2.7-0.4,3.1-0.9c0.5-0.6,0.5-1.9,0.5-4.5
		V27.9z M496.9,3.5c1.9,0,3.5,1.6,3.5,3.5c0,1.9-1.6,3.5-3.5,3.5s-3.5-1.6-3.5-3.5C493.3,5.1,494.9,3.5,496.9,3.5z"/>
	<path class="st0" d="M513.2,27.9c0-2.1,0-3.5-0.4-4c-0.4-0.4-0.8-0.6-1.8-0.7l-3-0.1l-0.2-0.2v-1.2l0.2-0.2c2-0.2,6.7-1.6,9.5-2.7
		l0.4,0.4V25c1.6-1.2,5-4.1,6-5.3c1.4-0.6,2.7-1.1,5.6-1.1c9,0,11.1,6.7,11.1,12v16.2c0,3.2,0.5,3.7,3.7,4l1.6,0.1l0.2,0.2v1.2
		l-0.2,0.2c-1.5-0.1-3.3-0.2-5-0.2c-1.7,0-3.8,0.1-4.8,0.2l-0.4-0.4c0.4-4.8,0.4-10.1,0.4-16.8c0-7.1-0.4-12.7-9.1-12.7
		c-4.7,0-8.1,4-8.4,4.6c-0.3,0.6-0.5,2.7-0.5,7.7v4.5c0,6.8,0.1,9.1,0.5,10.1c0.3,0.9,1,1.2,3.7,1.4l1.7,0.1l0.2,0.2v1.2l-0.2,0.2
		c-2.5-0.1-5.2-0.2-7.9-0.2c-2.7,0-5.5,0.1-7.9,0.2l-0.2-0.2v-1.2l0.2-0.2l1.7-0.1c1.8-0.1,2.7-0.4,3.1-0.9c0.5-0.6,0.5-1.9,0.5-4.5
		V27.9z"/>
	<path class="st0" d="M577.3,24.5c0.6,1.1,1,2.9,1,5.3c0,5.6-4.7,11.5-14.5,11.5h-1.6c-2.3,1.2-4,2.3-4,4.5c0,2.3,1.7,3,5.8,3
		c2.4,0,8.2-0.2,10.4-0.2c4,0,8.6,0.7,8.6,8.2c0,9.1-8.4,15.3-19.3,15.3c-6.8,0-13.3-3.5-13.3-10.5c0-2.2,0.6-3.5,1.3-4.5
		c0.7-1.1,4.1-3.5,6.5-4.6v-0.1c-1.7-0.2-4.8-1.3-4.8-4.5c0-2.8,3.6-4.8,6.6-6.8v-0.1c-3.2-0.8-7.8-3-7.8-9.9
		c0-7.5,7.1-12.2,15.6-12.2c4.4,0,6.8,1.7,8.4,3.1h1.2c3.4,0,7.1-0.3,8.8-0.6l0.3,0.5l-1.2,3L577.3,24.5z M565.5,69.8
		c6.9,0,12.7-4.4,12.7-10.4c0-4.9-1.9-6.8-7.6-6.8c-1.3,0-5.8,0.1-7.1,0.1c-1.4,0-2.7-0.1-3.6-0.1c-3.5,2.4-5,4.8-5,8.7
		C555,67,560.6,69.8,565.5,69.8z M565.5,39.1c4,0,7.9-2.8,7.9-9.1c0-6.5-4.5-8.9-8.1-8.9c-5.6,0-8.1,3.8-8.1,9.1
		C557.2,35,559.9,39.1,565.5,39.1z"/>
</g>
</svg>
